<svg xmlns="http://www.w3.org/2000/svg" viewBox="0 0 27.42 19.41"><defs><style>.cls-1{fill:#303d5a;}.cls-2{fill:#147bff;}</style></defs><title>yt</title><g id="Capa_2" data-name="Capa 2"><g id="Capa_3" data-name="Capa 3"><path class="cls-1" d="M27.4,6.68c0-.32,0-.65,0-1a7.18,7.18,0,0,0-1.17-4A4.43,4.43,0,0,0,23.06.38C21.61.22,20.16.12,18.7.06,15.76,0,12.81,0,9.86.08c-1.52,0-3,.07-4.54.19C3.46.41,1.56.69.69,2.54-.08,4.2,0,6.31,0,8.1c0,1.61,0,3.21,0,4.81.08,2.09.2,4.8,2.45,5.71a13,13,0,0,0,3.93.68c1.35.09,2.71.07,4.07.1,2.85,0,5.7-.06,8.55-.12a19.62,19.62,0,0,0,5.91-.7C26.6,18,27,16.25,27.25,14.71a31,31,0,0,0,.16-4.62C27.41,9,27.44,7.82,27.4,6.68Z"/><path class="cls-2" d="M18,9.67,10.93,5.5v8.34Z"/></g></g></svg>