<svg xmlns="http://www.w3.org/2000/svg" viewBox="0 0 59.28 70.25"><defs><style>.cls-1{fill:#fff;}</style></defs><title>Recurso 1</title><g id="Capa_2" data-name="Capa 2"><g id="Capa_3" data-name="Capa 3"><path class="cls-1" d="M0,41.48c0-.13.05-.26.07-.39a2.19,2.19,0,0,1,1.28-1.58c1-.57,2.12-1.11,3.17-1.66a2.13,2.13,0,0,0,.42-.3,4.14,4.14,0,0,1,1.89-.95,1.71,1.71,0,0,0,.38-.13l17.07-8.74a.52.52,0,0,0,.34-.51c0-2.08.09-4.16.14-6.23l.18-7.93Q25,10,25.08,6.94q.08-2.72.12-5.43A.62.62,0,0,1,25.59,1,7.36,7.36,0,0,1,26.82.44a9.94,9.94,0,0,1,6.44.21,2.48,2.48,0,0,1,.37.17.86.86,0,0,1,.53.84c.06,3.33.16,6.65.24,10,.07,2.82.12,5.63.18,8.45.07,2.59.14,5.17.2,7.76a.45.45,0,0,0,.3.47Q46,33.77,57,39.24c.42.21.83.45,1.23.7a2.28,2.28,0,0,1,1.06,1.82,13.86,13.86,0,0,1-.26,3.4c-.14,1.14-.31,2.28-.47,3.42s-.31,2.24-.46,3.36c-.13.93-.27,1.86-.38,2.79-.05.37,0,.75-.07,1.11a1.92,1.92,0,0,1-1.06,1.3q-3,1.62-6,3.22l-16.78,9a7.72,7.72,0,0,1-2.92.84,1,1,0,0,0-.24,0H29.2c-.1,0-.19,0-.29-.06a7.61,7.61,0,0,1-2.8-.78L8.4,60,3,57.14a2.25,2.25,0,0,1-1.23-1.6c-.21-1.21-.37-2.43-.55-3.65L.75,48.21C.57,47,.4,45.72.22,44.47.15,44,.07,43.61,0,43.19ZM24.48,31.32l-.57.12a19.73,19.73,0,0,0-6.06,2.35,10,10,0,0,0-3.55,3.39,5.67,5.67,0,0,0-.74,4.21,6.73,6.73,0,0,0,1.69,3.12A13.37,13.37,0,0,0,20,47.74a24.44,24.44,0,0,0,9.09,1.85,26.16,26.16,0,0,0,5.72-.48,20.33,20.33,0,0,0,6-2.08,10.78,10.78,0,0,0,4.06-3.52,5.67,5.67,0,0,0,.31-6.09,8.6,8.6,0,0,0-2.44-2.79,17.17,17.17,0,0,0-5.95-2.86c-.64-.18-1.28-.32-2-.49v.49c0,2.3.08,4.61.18,6.91a1.14,1.14,0,0,1-.62,1.13,8.63,8.63,0,0,1-5.71,1.47,7.92,7.92,0,0,1-4.19-1.65.49.49,0,0,1-.21-.43c.06-2,.12-3.93.16-5.9C24.49,32.65,24.48,32,24.48,31.32Zm5.44,36c.09-2.42.18-5.51.34-8.59a35.06,35.06,0,0,1,.45-3.69,1.5,1.5,0,0,1,.64-1.19c.48-.29.93-.61,1.43-.86L43.09,48l.62-.3a.14.14,0,0,0-.14,0c-1.57.7-3.14,1.41-4.72,2.1a57,57,0,0,1-7.27,2.77,4.93,4.93,0,0,1-2.77.19c-1.1-.33-2.2-.63-3.28-1-3.82-1.39-7.54-3-11.25-4.67l-.68-.3a.19.19,0,0,0,.11.12c2.64,1.23,5.28,2.43,7.9,3.69,2.09,1,4.14,2.07,6.21,3.1a1.77,1.77,0,0,1,1,1.26c0,.14.08.26.1.4.18,1.14.38,2.28.5,3.43.14,1.38.24,2.77.32,4.15C29.83,64.6,29.88,66.31,29.92,67.35ZM4.34,38.48a1.81,1.81,0,0,0-.4,2.8,3.53,3.53,0,0,0,1.3.93,7.5,7.5,0,0,0,4.51.45,5.31,5.31,0,0,0,2.34-1,1.86,1.86,0,0,0,0-3.15L12,39.63l.14-.33a1.24,1.24,0,0,1,0,.47A2.16,2.16,0,0,1,11,41.26a5.57,5.57,0,0,1-5.23.23,2.55,2.55,0,0,1-1.47-1.41c-.08-.22-.1-.48-.16-.72h.06l.4.71.07,0A1.78,1.78,0,0,1,4.34,38.48ZM29.84,2.74c.25,0,.67,0,1.09-.08a4.31,4.31,0,0,0,1.78-.52c.38-.24.39-.56,0-.78A2.92,2.92,0,0,0,32,1,9.09,9.09,0,0,0,27.78,1a4.45,4.45,0,0,0-1.12.42c-.37.19-.36.52,0,.75a2,2,0,0,0,.44.22A8,8,0,0,0,29.84,2.74Z"/><path d="M24.48,31.32c0,.69,0,1.33,0,2,0,2-.1,3.93-.16,5.9a.49.49,0,0,0,.21.43,7.92,7.92,0,0,0,4.19,1.65,8.63,8.63,0,0,0,5.71-1.47A1.14,1.14,0,0,0,35,38.68c-.1-2.3-.13-4.61-.18-6.91v-.49c.67.17,1.31.31,2,.49a17.17,17.17,0,0,1,5.95,2.86,8.6,8.6,0,0,1,2.44,2.79,5.67,5.67,0,0,1-.31,6.09A10.78,10.78,0,0,1,40.83,47a20.33,20.33,0,0,1-6,2.08,26.16,26.16,0,0,1-5.72.48A24.44,24.44,0,0,1,20,47.74a13.37,13.37,0,0,1-4.76-3.23,6.73,6.73,0,0,1-1.69-3.12,5.67,5.67,0,0,1,.74-4.21,10,10,0,0,1,3.55-3.39,19.73,19.73,0,0,1,6.06-2.35Zm19.79,6.57c0,.14,0,.29-.06.42a7.12,7.12,0,0,1-1.68,3,12.6,12.6,0,0,1-4.71,3.21A20.53,20.53,0,0,1,30.44,46a21.77,21.77,0,0,1-4.69-.36,16.94,16.94,0,0,1-7.11-2.93,8.73,8.73,0,0,1-3.15-4,7.51,7.51,0,0,1-.19-.82,4,4,0,0,0-.15.88,6,6,0,0,0,.69,2.87,9.6,9.6,0,0,0,3.73,3.85,19.11,19.11,0,0,0,9.58,2.66,21.24,21.24,0,0,0,5.09-.44,16.88,16.88,0,0,0,6.29-2.55,9,9,0,0,0,3.43-4A4.76,4.76,0,0,0,44.27,37.89ZM19.13,37a4.44,4.44,0,0,0-.08.61A4.75,4.75,0,0,0,20,40.47,8.69,8.69,0,0,0,24,43.41a14.87,14.87,0,0,0,5.18,1.1,16.34,16.34,0,0,0,4.19-.34,12.15,12.15,0,0,0,4.74-2,6.13,6.13,0,0,0,2.47-3.45,3,3,0,0,0,0-1.64,11.39,11.39,0,0,1-.45,1.18,7.16,7.16,0,0,1-3.11,3,14.92,14.92,0,0,1-8.55,1.67,14.4,14.4,0,0,1-4.38-1,9.1,9.1,0,0,1-3.74-2.55A5.37,5.37,0,0,1,19.13,37Z"/><path d="M29.92,67.35c0-1-.09-2.75-.18-4.46-.08-1.38-.18-2.77-.32-4.15-.12-1.15-.32-2.29-.5-3.43,0-.14-.07-.26-.1-.4a1.77,1.77,0,0,0-1-1.26c-2.07-1-4.12-2.1-6.21-3.1-2.62-1.26-5.26-2.46-7.9-3.69a.19.19,0,0,1-.11-.12l.68.3c3.71,1.64,7.43,3.28,11.25,4.67,1.08.4,2.18.7,3.28,1a4.93,4.93,0,0,0,2.77-.19,57,57,0,0,0,7.27-2.77c1.58-.69,3.15-1.4,4.72-2.1a.14.14,0,0,1,.14,0l-.62.3L32.78,53c-.5.25-1,.57-1.43.86a1.5,1.5,0,0,0-.64,1.19,35.06,35.06,0,0,0-.45,3.69C30.1,61.84,30,64.93,29.92,67.35Z"/><path d="M4.34,38.48A1.78,1.78,0,0,0,4.68,40l-.07,0-.4-.71H4.15c.06.24.08.5.16.72a2.55,2.55,0,0,0,1.47,1.41A5.57,5.57,0,0,0,11,41.26a2.16,2.16,0,0,0,1.14-1.49,1.24,1.24,0,0,0,0-.47l-.14.33.11-1.12a1.86,1.86,0,0,1,0,3.15,5.31,5.31,0,0,1-2.34,1,7.5,7.5,0,0,1-4.51-.45,3.53,3.53,0,0,1-1.3-.93A1.81,1.81,0,0,1,4.34,38.48Z"/><path d="M29.84,2.74a8,8,0,0,1-2.76-.4,2,2,0,0,1-.44-.22c-.34-.23-.35-.56,0-.75A4.45,4.45,0,0,1,27.78,1,9.09,9.09,0,0,1,32,1a2.92,2.92,0,0,1,.75.32c.39.22.38.54,0,.78a4.31,4.31,0,0,1-1.78.52C30.51,2.71,30.09,2.72,29.84,2.74Z"/><path class="cls-1" d="M44.27,37.89A4.76,4.76,0,0,1,44,41.17a9,9,0,0,1-3.43,4,16.88,16.88,0,0,1-6.29,2.55,21.24,21.24,0,0,1-5.09.44,19.11,19.11,0,0,1-9.58-2.66,9.6,9.6,0,0,1-3.73-3.85,6,6,0,0,1-.69-2.87,4,4,0,0,1,.15-.88,7.51,7.51,0,0,0,.19.82,8.73,8.73,0,0,0,3.15,4,16.94,16.94,0,0,0,7.11,2.93,21.77,21.77,0,0,0,4.69.36,20.53,20.53,0,0,0,7.38-1.52,12.6,12.6,0,0,0,4.71-3.21,7.12,7.12,0,0,0,1.68-3C44.24,38.18,44.25,38,44.27,37.89Z"/><path class="cls-1" d="M19.13,37a5.37,5.37,0,0,0,1.21,2.36,9.1,9.1,0,0,0,3.74,2.55,14.4,14.4,0,0,0,4.38,1A14.92,14.92,0,0,0,37,41.25a7.16,7.16,0,0,0,3.11-3A11.39,11.39,0,0,0,40.57,37a3,3,0,0,1,0,1.64,6.13,6.13,0,0,1-2.47,3.45,12.15,12.15,0,0,1-4.74,2,16.34,16.34,0,0,1-4.19.34A14.87,14.87,0,0,1,24,43.41,8.69,8.69,0,0,1,20,40.47a4.75,4.75,0,0,1-.95-2.86A4.44,4.44,0,0,1,19.13,37Z"/></g></g></svg>