<svg xmlns="http://www.w3.org/2000/svg" viewBox="0 0 21.41 21.41"><defs><style>.cls-1{fill:#303d5a;}</style></defs><title>inst</title><g id="Capa_2" data-name="Capa 2"><g id="Capa_3" data-name="Capa 3"><g id="_Grupo_" data-name="&lt;Grupo&gt;"><g id="_Grupo_2" data-name="&lt;Grupo&gt;"><path id="_Trazado_compuesto_" data-name="&lt;Trazado compuesto&gt;" class="cls-1" d="M14.86,21.41H6.55A6.56,6.56,0,0,1,0,14.86V6.55A6.56,6.56,0,0,1,6.55,0h8.31a6.56,6.56,0,0,1,6.55,6.55v8.31A6.56,6.56,0,0,1,14.86,21.41ZM6.55,1.6A5,5,0,0,0,1.6,6.55v8.31a5,5,0,0,0,4.95,4.95h8.31a5,5,0,0,0,4.95-4.95V6.55A5,5,0,0,0,14.86,1.6Z"/><path id="_Trazado_compuesto_2" data-name="&lt;Trazado compuesto&gt;" class="cls-1" d="M10.71,16.12a5.42,5.42,0,1,1,5.41-5.41A5.42,5.42,0,0,1,10.71,16.12Zm0-9.19a3.78,3.78,0,1,0,3.77,3.78A3.78,3.78,0,0,0,10.71,6.93Z"/><path id="_Trazado_" data-name="&lt;Trazado&gt;" class="cls-1" d="M18.12,4.7a1.41,1.41,0,1,1-1.41-1.41A1.41,1.41,0,0,1,18.12,4.7Z"/></g></g></g></g></svg>