<svg xmlns="http://www.w3.org/2000/svg" viewBox="0 0 24 19.49"><defs><style>.cls-1{fill:#303d5a;fill-rule:evenodd;}</style></defs><title>tw</title><g id="Capa_2" data-name="Capa 2"><g id="Capa_3" data-name="Capa 3"><g id="Logo_FIXED" data-name="Logo — FIXED"><path class="cls-1" d="M24,2.31a9.87,9.87,0,0,1-2.83.77A4.94,4.94,0,0,0,23.34.36a10,10,0,0,1-3.13,1.19,4.93,4.93,0,0,0-8.52,3.37A5.12,5.12,0,0,0,11.82,6,14,14,0,0,1,1.67.9,4.92,4.92,0,0,0,3.19,7.47,5,5,0,0,1,1,6.85v.07a4.92,4.92,0,0,0,4,4.82,5,5,0,0,1-1.29.17,4.73,4.73,0,0,1-.93-.09,4.92,4.92,0,0,0,4.6,3.42,9.9,9.9,0,0,1-6.12,2.11A11.48,11.48,0,0,1,0,17.28a14,14,0,0,0,7.55,2.21,13.92,13.92,0,0,0,14-14c0-.21,0-.42,0-.64A10.07,10.07,0,0,0,24,2.31Z"/></g></g></g></svg>